<?xml version="1.0" encoding="utf-8"?>
<!-- Generator: Adobe Illustrator 27.0.1, SVG Export Plug-In . SVG Version: 6.00 Build 0)  -->
<svg version="1.1" id="Ebene_1" xmlns="http://www.w3.org/2000/svg" xmlns:xlink="http://www.w3.org/1999/xlink" x="0px" y="0px"
	 viewBox="0 0 41.9 42" style="enable-background:new 0 0 41.9 42;" xml:space="preserve">
<style type="text/css">
	.st0{fill:#FFFFFF;}
</style>
<path class="st0" d="M41.9,20.2c0-1.3-0.2-2.5-0.5-3.8H33V15h3v-1.5h-6V12h4.5v-1.5H33V9h-3V7.5h1.5V6h-3V4.5H30V3V2
	c-2.7-1.3-5.8-2-9-2C9.6,0,0.4,9,0,20.2H41.9z M13.5,4.5c3.3,0,6,2.7,6,6c0,3.3-2.7,6-6,6c-3.3,0-6-2.7-6-6
	C7.5,7.2,10.1,4.5,13.5,4.5"/>
<path class="st0" d="M25.5,40.5H24V39h4.5v-1.5H30V36h4.5v-1.5H36V33h-3v-1.5h-4.5V30h3v-1.5h6V27h-3v-1.5h7
	c0.3-1.2,0.4-2.5,0.5-3.8H0C0.4,33,9.6,42,21,42c1.5,0,3-0.2,4.5-0.5V40.5z"/>
</svg>
